<svg xmlns="http://www.w3.org/2000/svg" width="1174" height="477.75" viewBox="0 0 1174 477.75">
	<style type="text/css">
		.st1{fill:#efefef;}
		.st0{stroke:#efefef;fill:none;stroke-width:6;}
	</style>
	<path class="st0" d="M736.68,50.97C747.05,50.97 755.46,59.38 755.46,69.75C755.46,80.12 747.05,88.52 736.68,88.52C726.31,88.52 717.91,80.12 717.91,69.75C717.91,59.38 726.31,50.97 736.68,50.97Z"/>
	<path class="st0" d="M721.18,297.97C728.52,297.97 734.46,303.92 734.46,311.25C734.46,318.58 728.52,324.52 721.18,324.52C713.85,324.52 707.91,318.58 707.91,311.25C707.91,303.92 713.85,297.97 721.18,297.97Z"/>
	<path class="st0" d="M1084.35,3C1090.3,3 1095.12,7.82 1095.12,13.77C1095.12,19.72 1090.3,24.55 1084.35,24.55C1078.4,24.55 1073.57,19.72 1073.57,13.77C1073.57,7.82 1078.4,3 1084.35,3Z"/>
	<path class="st0" d="M1138.72,137.4C1148.53,137.4 1156.49,145.36 1156.49,155.18C1156.49,164.99 1148.53,172.95 1138.72,172.95C1128.9,172.95 1120.94,164.99 1120.94,155.18C1120.94,145.36 1128.9,137.4 1138.72,137.4Z"/>
	<path class="st1" d="M1102.1,217.1L1141.14,232.16L1107.94,257.88Z"/>
	<path class="st1" d="M711.54,161.6L722.31,202.05L681.98,190.29Z"/>
	<path class="st1" d="M816.23,83.31L842.62,103.98L811.15,115.91Z"/>
	<path class="st1" d="M1168.57,47.19L1144.42,70.45L1136.99,37.63Z"/>
	<path class="st1" d="M772.52,172.37L783.13,176.87L787.77,166.47L793.38,168.97L798.38,171.1L803.01,160.69L803.15,160.75L803.23,160.57L813.59,165.4L818.26,154.91L818.39,154.97L818.48,154.79L834.48,162.25L831.83,167.93L821.47,163.1L816.8,173.58L816.67,173.52L816.58,173.71L806.23,168.87L801.55,179.36L795.95,176.86L790.94,174.74L786.31,185.14L780.73,182.66L770.07,178.13Z"/>
	<path class="st1" d="M1078.55,454.37L1089.16,458.88L1093.79,448.48L1099.4,450.98L1104.4,453.1L1109.03,442.7L1109.16,442.76L1109.25,442.57L1119.6,447.4L1124.27,436.92L1124.4,436.98L1124.49,436.79L1140.48,444.25L1137.83,449.92L1127.48,445.1L1122.81,455.58L1122.68,455.52L1122.59,455.7L1112.24,450.87L1107.57,461.36L1101.97,458.86L1096.97,456.74L1092.34,467.14L1086.76,464.66L1076.1,460.13Z"/>
	<path class="st1" d="M1093.62,99.5L1090.09,89.25L1079.92,92.57L1078.13,87.08L1076.46,82.25L1066.29,85.56L1066.25,85.43L1066.07,85.48L1062.93,75.22L1052.67,78.55L1052.63,78.42L1052.45,78.47L1047.6,62.62L1053.22,60.9L1056.36,71.16L1066.62,67.83L1066.66,67.96L1066.85,67.9L1069.98,78.17L1080.24,74.84L1082.03,80.32L1083.69,85.15L1093.86,81.84L1095.63,87.3L1099.18,97.59Z"/>
	<path class="st1" d="M824.02,38.56L824.02,28.86L814.32,28.86L814.32,20.23L824.02,20.23L824.02,10.53L832.64,10.53L832.64,20.23L842.34,20.23L842.34,28.86L832.64,28.86L832.64,38.56Z"/>
	<path class="st1" d="M751.91,263.96L751.91,254.26L742.21,254.26L742.21,245.63L751.91,245.63L751.91,235.93L760.53,235.93L760.53,245.63L770.23,245.63L770.23,254.26L760.53,254.26L760.53,263.96Z"/>
	<path class="st1" d="M1162.72,313.71L1156.82,304.61L1147.72,310.52L1142.47,302.44L1151.57,296.53L1145.66,287.44L1153.74,282.19L1159.65,291.28L1168.74,285.38L1173.99,293.46L1164.9,299.36L1170.81,308.46Z"/>
	<path class="st1" d="M710.92,463L709.27,455.86L702.12,457.51L700.65,451.15L707.8,449.5L706.15,442.36L712.5,440.89L714.15,448.04L721.3,446.39L722.77,452.74L715.62,454.39L717.27,461.54Z"/>
	<path class="st1" d="M1054.17,161.95L1055.07,149.05L1042.17,148.14L1042.97,136.67L1055.88,137.58L1056.78,124.67L1068.25,125.48L1067.35,138.38L1080.25,139.29L1079.45,150.76L1066.54,149.85L1065.64,162.76Z"/>
	<path class="st1" d="M922.91,88.03L918.68,78.05L908.76,82.07L906.6,76.72L904.6,72.02L894.68,76.03L894.63,75.9L894.45,75.97L890.6,65.95L880.6,69.99L880.55,69.86L880.37,69.93L874.43,54.45L879.92,52.34L883.77,62.36L893.77,58.32L893.82,58.45L894,58.38L897.85,68.4L907.85,64.36L910.01,69.71L912.01,74.41L921.93,70.4L924.07,75.72L928.33,85.74Z"/>
	<path class="st1" d="M1127.53,350.21L1158.29,359.03L1149.46,389.79L1118.71,380.97Z"/>
	<path class="st1" d="M670.21,382.07L696.42,363.7L714.79,389.91L688.58,408.27Z"/>
</svg>